<mxfile host="app.diagrams.net" modified="2023-12-16T17:37:04.633Z" agent="Mozilla/5.0 (X11; Ubuntu; Linux x86_64; rv:109.0) Gecko/20100101 Firefox/119.0" version="22.1.11" etag="l98PmlWQp7dPENFPW5tc" type="github">
  <diagram name="Страница — 1" id="-mfsJ_qhdOQuBa3motd6">
    <mxGraphModel>
      <root>
        <mxCell id="0" />
        <mxCell id="1" parent="0" />
      </root>
    </mxGraphModel>
  </diagram>
</mxfile>
